<svg width="1920" height="1080" viewBox="0 0 1920 1080" fill="none" xmlns="http://www.w3.org/2000/svg">
<path d="M93.5348 113.279C93.5348 98.7655 105.306 87 119.825 87H1272.86C1287.38 87 1299.15 98.7655 1299.15 113.279V842.834C1299.15 857.348 1287.38 869.113 1272.86 869.113H119.825C105.306 869.113 93.5348 857.348 93.5348 842.834V113.279Z" fill="#D9D9D9"/>
<path d="M1325.44 148.318H1550.79C1619.24 148.318 1674.73 203.784 1674.73 272.204V869.113H1325.44V148.318Z" fill="#FF8000"/>
<path d="M1674.73 394.84C1771.53 394.84 1850 473.277 1850 570.033V869.113H1674.73V394.84Z" fill="#FF8000"/>
<path d="M71 765.249H1850V869.113H104.802C86.1338 869.113 71 853.986 71 835.326V765.249Z" fill="#272727"/>
<path d="M525.452 840.331C525.452 924.648 457.07 993 372.716 993C288.363 993 219.98 924.648 219.98 840.331C219.98 756.015 288.363 687.663 372.716 687.663C457.07 687.663 525.452 756.015 525.452 840.331Z" fill="black"/>
<path d="M450.336 840.331C450.336 883.181 415.585 917.917 372.716 917.917C329.848 917.917 295.096 883.181 295.096 840.331C295.096 797.482 329.848 762.746 372.716 762.746C415.585 762.746 450.336 797.482 450.336 840.331Z" fill="#777777"/>
<path d="M1639.67 840.331C1639.67 924.648 1571.29 993 1486.94 993C1402.58 993 1334.2 924.648 1334.2 840.331C1334.2 756.015 1402.58 687.663 1486.94 687.663C1571.29 687.663 1639.67 756.015 1639.67 840.331Z" fill="black"/>
<path d="M1564.56 840.331C1564.56 883.181 1529.81 917.917 1486.94 917.917C1444.07 917.917 1409.32 883.181 1409.32 840.331C1409.32 797.482 1444.07 762.746 1486.94 762.746C1529.81 762.746 1564.56 797.482 1564.56 840.331Z" fill="#777777"/>
<path d="M1717.29 582.547C1717.29 572.871 1725.14 565.028 1734.82 565.028H1850V796.533H1717.29V582.547Z" fill="#D9D9D9"/>
<path d="M1385.53 223.401H1560.8C1592.61 223.401 1618.39 249.173 1618.39 280.964V454.906H1385.53V223.401Z" fill="white"/>
</svg>
