<svg width="1404" height="1080" viewBox="0 0 1404 1080" fill="none" xmlns="http://www.w3.org/2000/svg">
<g clip-path="url(#clip0_50_21)">
<rect x="233" y="450" width="894" height="630" fill="#F6CA64"/>
<path d="M196 485C196 457.938 217.938 436 245 436H1127V562H196V485Z" fill="#3C1309"/>
<rect x="760" y="245" width="644" height="835" fill="#F6CA64"/>
<path d="M680 231C680 203.938 701.938 182 729 182H1404V308H680V231Z" fill="#3C1309"/>
<path d="M731 168C731 140.938 752.938 119 780 119H1404V245H731V168Z" fill="#3C1309"/>
<rect x="393" y="689" width="215" height="215" fill="#E0F4FF" stroke="#3C1309" stroke-width="20"/>
<path d="M501 692V902.5" stroke="#3C1309" stroke-width="27"/>
<path d="M395.755 797.255L606.255 797.255" stroke="#3C1309" stroke-width="27"/>
<rect x="974" y="354" width="215" height="215" fill="#E0F4FF" stroke="#3C1309" stroke-width="20"/>
<path d="M1082 357V567.5" stroke="#3C1309" stroke-width="27"/>
<path d="M976.755 462.255L1187.25 462.255" stroke="#3C1309" stroke-width="27"/>
<rect x="887" y="620" width="394" height="460" fill="#3C1309"/>
<path d="M914 839H1001.5C1009.51 839 1016 845.492 1016 853.5V853.5C1016 861.508 1009.51 868 1001.5 868H914V839Z" fill="#FFB300"/>
<path d="M17 1009H396V1083H17V1009Z" fill="#128C2F"/>
<path d="M119 1009C119 1037.17 96.1665 1060 68 1060C39.8335 1060 17 1037.17 17 1009C17 980.833 39.8335 958 68 958C96.1665 958 119 980.833 119 1009Z" fill="#128C2F"/>
<path d="M294 1012C294 1040.17 316.833 1063 345 1063C373.167 1063 396 1040.17 396 1012C396 983.833 373.167 961 345 961C316.833 961 294 983.833 294 1012Z" fill="#128C2F"/>
<path d="M239 981.5C239 1024.85 203.854 1060 160.5 1060C117.146 1060 82 1024.85 82 981.5C82 938.146 117.146 903 160.5 903C203.854 903 239 938.146 239 981.5Z" fill="#128C2F"/>
<path d="M174 984.5C174 1027.85 209.146 1063 252.5 1063C295.854 1063 331 1027.85 331 984.5C331 941.146 295.854 906 252.5 906C209.146 906 174 941.146 174 984.5Z" fill="#128C2F"/>
<path d="M396 1020H775V1094H396V1020Z" fill="#128C2F"/>
<path d="M498 1020C498 1048.17 475.167 1071 447 1071C418.833 1071 396 1048.17 396 1020C396 991.833 418.833 969 447 969C475.167 969 498 991.833 498 1020Z" fill="#128C2F"/>
<path d="M673 1023C673 1051.17 695.833 1074 724 1074C752.167 1074 775 1051.17 775 1023C775 994.833 752.167 972 724 972C695.833 972 673 994.833 673 1023Z" fill="#128C2F"/>
<path d="M618 992.5C618 1035.85 582.854 1071 539.5 1071C496.146 1071 461 1035.85 461 992.5C461 949.146 496.146 914 539.5 914C582.854 914 618 949.146 618 992.5Z" fill="#128C2F"/>
<path d="M553 995.5C553 1038.85 588.146 1074 631.5 1074C674.854 1074 710 1038.85 710 995.5C710 952.146 674.854 917 631.5 917C588.146 917 553 952.146 553 995.5Z" fill="#128C2F"/>
</g>
<defs>
<clipPath id="clip0_50_21">
<rect width="1404" height="1080" fill="white"/>
</clipPath>
</defs>
</svg>
