<svg width="1080" height="1080" viewBox="0 0 1080 1080" fill="none" xmlns="http://www.w3.org/2000/svg">
<rect x="19" y="20" width="1041" height="1041" rx="163" fill="#0091FF"/>
<path d="M816.14 370.804C816.14 311.591 767.977 263.621 708.603 263.621H370.399C311.025 263.621 262.86 311.591 262.86 370.804V710.196C262.86 769.409 311.025 817.379 370.399 817.379H708.603C767.976 817.379 816.14 769.409 816.14 710.196V370.804ZM706.23 376.287C743.198 376.288 773.132 406.148 773.132 442.94V640.425C773.131 677.218 743.198 707.077 706.23 707.077H371.585C334.618 707.077 304.68 677.22 304.68 640.425V442.94C304.68 406.147 334.618 376.287 371.585 376.287H706.23ZM540.322 626.479L476.028 571.781L398.082 649.456H684.724L605.052 570.062L540.322 626.479ZM362.54 603.357L431.9 534.238L362.54 475.228V603.357ZM648.687 532.03L715.272 598.383V473.998L648.687 532.03ZM539.864 550.304L673.414 433.909H403.048L539.864 550.304ZM874 710.196C874 801.197 799.967 875 708.603 875H370.399C279.035 875 205 801.197 205 710.196V370.804C205 279.803 279.035 206 370.399 206H708.603C799.967 206 874 279.803 874 370.804V710.196Z" fill="white"/>
</svg>
