<svg width="1920" height="662" viewBox="0 0 1920 662" fill="none" xmlns="http://www.w3.org/2000/svg">
<path d="M650.339 101.082V90.0583H727.437V101.082H695.112V192.681H682.664V101.082H650.339Z" fill="white"/>
<path d="M746.649 192.681V90.0583H781.383C789.414 90.0583 796.007 91.4279 801.16 94.1672C806.313 96.8731 810.128 100.598 812.604 105.341C815.08 110.085 816.318 115.48 816.318 121.526C816.318 127.573 815.08 132.935 812.604 137.611C810.128 142.288 806.33 145.963 801.21 148.635C796.09 151.274 789.548 152.594 781.584 152.594H753.475V141.369H781.183C786.67 141.369 791.088 140.568 794.434 138.964C797.814 137.361 800.256 135.089 801.762 132.15C803.301 129.176 804.071 125.635 804.071 121.526C804.071 117.418 803.301 113.826 801.762 110.753C800.223 107.68 797.763 105.308 794.384 103.638C791.004 101.934 786.537 101.082 780.982 101.082H759.097V192.681H746.649ZM795.036 146.581L820.334 192.681H805.878L780.982 146.581H795.036Z" fill="white"/>
<path d="M841.278 192.681H828.227L865.973 90.0583H878.823L916.569 192.681H903.518L872.799 106.293H871.996L841.278 192.681ZM846.096 152.594H898.7V163.618H846.096V152.594Z" fill="white"/>
<path d="M1010.47 122.128H998.021C997.285 118.553 995.997 115.413 994.156 112.707C992.349 110.002 990.141 107.73 987.531 105.893C984.954 104.022 982.093 102.619 978.948 101.684C975.802 100.748 972.523 100.28 969.109 100.28C962.885 100.28 957.247 101.851 952.194 104.991C947.175 108.131 943.176 112.757 940.198 118.871C937.253 124.984 935.781 132.484 935.781 141.369C935.781 150.255 937.253 157.755 940.198 163.868C943.176 169.981 947.175 174.608 952.194 177.748C957.247 180.888 962.885 182.459 969.109 182.459C972.523 182.459 975.802 181.991 978.948 181.055C982.093 180.12 984.954 178.734 987.531 176.896C990.141 175.026 992.349 172.737 994.156 170.032C995.997 167.292 997.285 164.152 998.021 160.611H1010.47C1009.53 165.856 1007.83 170.549 1005.35 174.692C1002.87 178.834 999.795 182.358 996.114 185.265C992.433 188.137 988.3 190.326 983.716 191.829C979.165 193.332 974.296 194.084 969.109 194.084C960.342 194.084 952.545 191.946 945.719 187.67C938.893 183.394 933.522 177.314 929.607 169.43C925.692 161.547 923.734 152.193 923.734 141.369C923.734 130.546 925.692 121.192 929.607 113.309C933.522 105.425 938.893 99.3451 945.719 95.0692C952.545 90.7932 960.342 88.6553 969.109 88.6553C974.296 88.6553 979.165 89.4069 983.716 90.9102C988.3 92.4134 992.433 94.6182 996.114 97.5245C999.795 100.397 1002.87 103.905 1005.35 108.047C1007.83 112.156 1009.53 116.85 1010.47 122.128Z" fill="white"/>
<path d="M1030.58 192.681V90.0583H1043.03V140.969H1044.24L1090.42 90.0583H1106.68L1063.51 136.359L1106.68 192.681H1091.62L1055.88 144.977L1043.03 159.409V192.681H1030.58Z" fill="white"/>
<path d="M665.598 226.888H781.379L861.021 420.641H865.036L944.677 226.888H1060.46V568.963H969.44V371.201H966.763L890.468 566.29H835.589L759.294 369.865H756.617V568.963H665.598V226.888Z" fill="white"/>
<path d="M1193.56 568.963H1093.17L1206.27 226.888H1333.43L1446.54 568.963H1346.15L1271.19 321.092H1268.51L1193.56 568.963ZM1174.82 434.004H1363.55V503.487H1174.82V434.004Z" fill="white"/>
<path d="M1572.56 226.888V568.963H1479.54V226.888H1572.56Z" fill="white"/>
<path d="M1616.65 568.963V226.888H1709.68V494.134H1848.21V568.963H1616.65Z" fill="white"/>
<path d="M471.22 234.155L315.975 369.963L263.472 325.131M156.931 234.155L263.472 325.131M263.472 325.131L156.931 431.694M370.572 325.131L471.22 425.8M180.194 577H450.806C511.112 577 560 528.102 560 467.783V195.217C560 134.898 511.112 86 450.806 86H180.194C119.888 86 71 134.898 71 195.217V467.783C71 528.102 119.888 577 180.194 577ZM181.144 442.141H448.907C465.688 442.141 479.291 428.535 479.291 411.75V253.149C479.291 236.365 465.688 222.758 448.907 222.758H181.144C164.363 222.758 150.759 236.365 150.759 253.149V411.75C150.759 428.535 164.363 442.141 181.144 442.141Z" stroke="white" stroke-width="36"/>
</svg>
