<svg width="1404" height="1080" viewBox="0 0 1404 1080" fill="none" xmlns="http://www.w3.org/2000/svg">
<g clip-path="url(#clip0_51_77)">
<path d="M0 127H1194C1223.27 127 1247 150.729 1247 180V1080H0V127Z" fill="url(#paint0_linear_51_77)"/>
<path d="M-19 167H1131C1160.27 167 1184 190.729 1184 220V1078H-19V167Z" fill="#626262"/>
<path d="M436.923 477.744V471.594H478.46V477.744H461.045V528.847H454.338V477.744H436.923Z" fill="white"/>
<path d="M488.563 528.847V471.594H507.614C512.019 471.594 515.635 472.358 518.461 473.886C521.287 475.396 523.38 477.474 524.738 480.12C526.096 482.767 526.775 485.777 526.775 489.15C526.775 492.523 526.096 495.515 524.738 498.123C523.38 500.733 521.297 502.783 518.488 504.274C515.68 505.746 512.092 506.482 507.724 506.482H492.307V500.22H507.504C510.514 500.22 512.937 499.773 514.772 498.878C516.626 497.984 517.965 496.716 518.791 495.077C519.635 493.418 520.058 491.442 520.058 489.15C520.058 486.858 519.635 484.854 518.791 483.139C517.947 481.425 516.598 480.102 514.745 479.17C512.891 478.219 510.441 477.744 507.394 477.744H495.391V528.847H488.563ZM515.102 503.128L528.977 528.847H521.049L507.394 503.128H515.102Z" fill="white"/>
<path d="M540.599 528.847H533.467L554.093 471.594H561.114L581.739 528.847H574.608L557.822 480.651H557.384L540.599 528.847ZM543.231 506.482H571.975V512.633H543.231V506.482Z" fill="white"/>
<path d="M632.257 490.128H625.49C625.09 488.148 624.389 486.41 623.389 484.911C622.406 483.413 621.206 482.155 619.787 481.138C618.386 480.102 616.831 479.326 615.122 478.808C613.411 478.29 611.629 478.03 609.773 478.03C606.39 478.03 603.325 478.9 600.578 480.639C597.85 482.377 595.676 484.939 594.057 488.324C592.456 491.709 591.656 495.862 591.656 500.781C591.656 505.701 592.456 509.854 594.057 513.239C595.676 516.624 597.85 519.186 600.578 520.924C603.325 522.663 606.39 523.533 609.773 523.533C611.629 523.533 613.411 523.274 615.122 522.755C616.831 522.238 618.386 521.47 619.787 520.452C621.206 519.417 622.406 518.15 623.389 516.652C624.389 515.135 625.09 513.396 625.49 511.435H632.257C631.746 514.34 630.822 516.938 629.474 519.232C628.126 521.525 626.454 523.477 624.453 525.086C622.452 526.677 620.205 527.889 617.713 528.721C615.24 529.553 612.593 529.969 609.773 529.969C605.007 529.969 600.769 528.786 597.058 526.418C593.348 524.05 590.428 520.684 588.3 516.319C586.172 511.954 585.107 506.774 585.107 500.781C585.107 494.789 586.172 489.609 588.3 485.245C590.428 480.879 593.348 477.513 597.058 475.145C600.769 472.778 605.007 471.594 609.773 471.594C612.593 471.594 615.24 472.01 617.713 472.842C620.205 473.675 622.452 474.896 624.453 476.505C626.454 478.095 628.126 480.038 629.474 482.331C630.822 484.606 631.746 487.205 632.257 490.128Z" fill="white"/>
<path d="M643.483 528.847V471.594H650.278V499.997H650.939L676.144 471.594H685.019L661.457 497.425L685.019 528.847H676.799L657.292 502.233L650.278 510.284V528.847H643.483Z" fill="white"/>
<path d="M445.904 547.931H508.446L551.467 652.846H553.636L596.656 547.931H659.199V733.161H610.032V626.075H608.586L567.374 731.713H537.729L496.517 625.352H495.071V733.161H445.904V547.931Z" fill="white"/>
<path d="M732.016 733.161H677.161L738.961 547.931H808.444L870.249 733.161H815.394L774.435 598.941H772.97L732.016 733.161ZM721.776 660.082H824.902V697.706H721.776V660.082Z" fill="white"/>
<path d="M938.728 547.931V733.161H888.211V547.931H938.728Z" fill="white"/>
<path d="M962.303 733.161V547.931H1013.27V692.642H1089.16V733.161H962.303Z" fill="white"/>
<path d="M375.659 529.179C375.659 503.245 354.565 482.236 328.561 482.236H180.439C154.435 482.236 133.341 503.245 133.341 529.179V677.821C133.341 703.755 154.436 724.764 180.439 724.764H328.561C354.565 724.764 375.659 703.755 375.659 677.821V529.179ZM327.522 531.58C343.713 531.58 356.823 544.658 356.823 560.772V647.264C356.823 663.378 343.713 676.455 327.522 676.455H180.959C164.769 676.455 151.657 663.379 151.657 647.264V560.772C151.657 544.658 164.768 531.58 180.959 531.58H327.522ZM254.86 641.156L226.701 617.2L192.564 651.219H318.103L283.21 616.447L254.86 641.156ZM176.997 631.029L207.375 600.757L176.997 574.913V631.029ZM302.32 599.791L331.482 628.851V574.374L302.32 599.791ZM254.659 607.794L313.15 556.816H194.739L254.659 607.794ZM401 677.821C401 717.677 368.576 750 328.561 750H180.439C140.425 750 108 717.677 108 677.821V529.179C108 489.323 140.425 457 180.439 457H328.561C368.576 457 401 489.323 401 529.179V677.821Z" fill="white"/>
<path d="M108 1109.64H857V1256H108V1109.64Z" fill="#128C2F"/>
<path d="M309.578 1109.64C309.578 1165.35 264.453 1210.51 208.789 1210.51C153.125 1210.51 108 1165.35 108 1109.64C108 1053.94 153.125 1008.78 208.789 1008.78C264.453 1008.78 309.578 1053.94 309.578 1109.64Z" fill="#128C2F"/>
<path d="M655.422 1115.58C655.422 1171.28 700.547 1216.44 756.211 1216.44C811.875 1216.44 857 1171.28 857 1115.58C857 1059.87 811.875 1014.71 756.211 1014.71C700.547 1014.71 655.422 1059.87 655.422 1115.58Z" fill="#128C2F"/>
<path d="M546.728 1055.26C546.728 1141 477.272 1210.51 391.592 1210.51C305.913 1210.51 236.456 1141 236.456 1055.26C236.456 969.51 305.913 900 391.592 900C477.272 900 546.728 969.51 546.728 1055.26Z" fill="#128C2F"/>
<path d="M418.272 1061.19C418.272 1146.93 487.728 1216.44 573.408 1216.44C659.087 1216.44 728.544 1146.93 728.544 1061.19C728.544 975.444 659.087 905.933 573.408 905.933C487.728 905.933 418.272 975.444 418.272 1061.19Z" fill="#128C2F"/>
<path d="M935 1006H1314V1080H935V1006Z" fill="#128C2F"/>
<path d="M1037 1006C1037 1034.17 1014.17 1057 986 1057C957.833 1057 935 1034.17 935 1006C935 977.833 957.833 955 986 955C1014.17 955 1037 977.833 1037 1006Z" fill="#128C2F"/>
<path d="M1212 1009C1212 1037.17 1234.83 1060 1263 1060C1291.17 1060 1314 1037.17 1314 1009C1314 980.833 1291.17 958 1263 958C1234.83 958 1212 980.833 1212 1009Z" fill="#128C2F"/>
<path d="M1157 978.5C1157 1021.85 1121.85 1057 1078.5 1057C1035.15 1057 1000 1021.85 1000 978.5C1000 935.146 1035.15 900 1078.5 900C1121.85 900 1157 935.146 1157 978.5Z" fill="#128C2F"/>
<path d="M1092 981.5C1092 1024.85 1127.15 1060 1170.5 1060C1213.85 1060 1249 1024.85 1249 981.5C1249 938.146 1213.85 903 1170.5 903C1127.15 903 1092 938.146 1092 981.5Z" fill="#128C2F"/>
<path d="M0 69H1228C1283.78 69 1329 114.219 1329 170V271H0V69Z" fill="#3C1309"/>
</g>
<defs>
<linearGradient id="paint0_linear_51_77" x1="726" y1="127" x2="736.5" y2="850" gradientUnits="userSpaceOnUse">
<stop stop-color="#626262"/>
<stop offset="1" stop-color="#515151"/>
</linearGradient>
<clipPath id="clip0_51_77">
<rect width="1404" height="1080" fill="white"/>
</clipPath>
</defs>
</svg>
